<?xml version="1.0" encoding="UTF-8" standalone="no"?>
<!-- Created with Inkscape (http://www.inkscape.org/) -->

<svg
   xmlns:dc="http://purl.org/dc/elements/1.1/"
   xmlns:cc="http://creativecommons.org/ns#"
   xmlns:rdf="http://www.w3.org/1999/02/22-rdf-syntax-ns#"
   xmlns:svg="http://www.w3.org/2000/svg"
   xmlns="http://www.w3.org/2000/svg"
   xmlns:sodipodi="http://sodipodi.sourceforge.net/DTD/sodipodi-0.dtd"
   xmlns:inkscape="http://www.inkscape.org/namespaces/inkscape"
   width="210mm"
   height="297mm"
   viewBox="0 0 210 297"
   version="1.1"
   id="svg8"
   inkscape:version="0.92.1 r15371"
   sodipodi:docname="drawing.svg"
   inkscape:export-filename="/home/aaverill/RaspberryPiKits/lilypad/lilypadIDE/lily.png"
   inkscape:export-xdpi="16.176584"
   inkscape:export-ydpi="16.176584">
  <defs
     id="defs2" />
  <sodipodi:namedview
     id="base"
     pagecolor="#ffffff"
     bordercolor="#666666"
     borderopacity="1.0"
     inkscape:pageopacity="0.0"
     inkscape:pageshadow="2"
     inkscape:zoom="0.65103955"
     inkscape:cx="722.45046"
     inkscape:cy="536.44546"
     inkscape:document-units="mm"
     inkscape:current-layer="layer1"
     showgrid="false"
     inkscape:window-width="1920"
     inkscape:window-height="1029"
     inkscape:window-x="0"
     inkscape:window-y="0"
     inkscape:window-maximized="1" />
  <metadata
     id="metadata5">
    <rdf:RDF>
      <cc:Work
         rdf:about="">
        <dc:format>image/svg+xml</dc:format>
        <dc:type
           rdf:resource="http://purl.org/dc/dcmitype/StillImage" />
        <dc:title></dc:title>
      </cc:Work>
    </rdf:RDF>
  </metadata>
  <g
     inkscape:label="Layer 1"
     inkscape:groupmode="layer"
     id="layer1">
    <g
       id="g5367"
       transform="matrix(1.6623979,0,0,1.5291503,-66.113281,-25.595701)">
      <path
         d="m 406.48242,177.88281 a 221.68882,229.5078 65 0 0 -168.16797,60.42774 221.68882,229.5078 65 0 0 -39.42968,288.88281 221.68882,229.5078 65 0 0 268.46679,80.95312 c 0.0817,-0.0604 0.16106,-0.12503 0.25,-0.17382 0.41666,-0.22867 0.83964,-0.42566 1.29492,-0.56055 0.73225,-0.17877 0.4299,-0.0924 0.91602,-0.23828 0.37186,-0.13734 0.75335,-0.24416 1.13281,-0.35742 a 221.68882,229.5078 65 0 0 0.75781,-0.2793 c -0.0111,-0.003 -0.0232,-0.007 -0.0176,-0.0195 0.0265,-0.0563 0.0744,-0.0989 0.11328,-0.14649 0.20334,-0.24982 0.28319,-0.33495 0.50781,-0.58984 0.38811,-0.4467 0.85972,-0.80739 1.375,-1.0918 0.0131,-0.0125 0.01,-0.008 0.0234,-0.0215 0.73735,-0.5994 1.49831,-1.18469 2.1914,-1.83594 0.0359,-0.0337 0.0679,-0.0714 0.10352,-0.10547 0.0199,-0.0326 0.039,-0.0625 0.0605,-0.0976 0.003,-0.005 0.002,-0.006 0.004,-0.01 0.0287,-0.0484 0.0139,-0.0211 0.0566,-0.11914 0.062,-0.17461 0.0649,-0.18167 0.125,-0.3457 0.0446,-0.1217 0.16204,-0.51672 0.26953,-0.60157 0.14778,-0.34922 0.2154,-0.72897 0.38086,-1.07226 0.12624,-0.31446 0.10312,-0.28227 0.32422,-0.65039 0.0191,-0.0319 0.0473,-0.0882 0.0703,-0.10938 0.10025,-0.28383 0.18625,-0.57837 0.33593,-0.83593 0.14363,-0.43752 0.25896,-0.88664 0.45508,-1.30469 0.0593,-0.0854 0.0936,-0.22564 0.125,-0.31446 0.0582,-0.16456 0.1206,-0.32855 0.17578,-0.49414 0.0601,-0.19955 0.0944,-0.40402 0.14844,-0.60546 0.009,-0.0325 0.0216,-0.0643 0.0332,-0.0957 -7.3e-4,-0.17906 5e-5,-0.35803 -0.002,-0.53711 0.004,-0.18784 0.003,-0.18944 0.0117,-0.3789 10e-4,-0.0378 0.003,-0.0759 0.004,-0.11328 8e-4,-0.0113 0.002,-0.0219 0.004,-0.0332 9.5e-4,-0.003 0.008,-0.004 0.008,-0.008 -0.008,-0.0533 -0.0199,-0.10529 -0.0312,-0.1582 -0.0151,-0.13342 -0.0344,-0.26701 -0.0469,-0.40039 -0.002,-0.0151 0.0187,-0.0292 0.008,-0.0488 -0.0487,-0.38453 -0.008,0.10891 -0.0664,-0.52344 -7.6e-4,-0.0113 0.004,-0.0219 0.004,-0.0332 0.0189,-0.0915 -0.003,0.0371 -0.0332,-0.20703 -0.008,-0.0586 -0.0937,-0.47684 -0.0215,-0.65625 0.008,-0.14438 -4e-4,0.097 -0.0332,-0.22461 -10e-4,-0.0113 0.0253,0.0414 0.0215,0.0312 -0.0805,-0.25626 -0.19405,-0.50694 -0.20312,-0.78125 -0.021,-0.14134 -0.0314,-0.18855 -0.0371,-0.22461 -0.0532,-0.0773 -0.17734,-0.25851 -0.19727,-0.3125 -0.0151,-0.0382 0.093,0.13383 0.0703,0.0996 -0.26646,-0.3958 -0.10835,-0.11413 -0.35742,-0.6543 -0.0227,-0.0869 -0.0503,-0.17403 -0.0723,-0.26172 -0.004,-0.0151 -0.015,-0.0644 -0.008,-0.0508 0.0302,0.0378 0.0856,0.16462 0.0645,0.12305 -0.10583,-0.2075 -0.21813,-0.41092 -0.29297,-0.63282 -0.004,-0.0142 -0.006,-0.0206 -0.0137,-0.043 -0.10309,-0.1519 -0.0999,-0.13256 -0.27344,-0.5625 -0.108,-0.44752 -0.10351,-0.36207 -0.1289,-0.76563 -0.0286,-0.0427 -0.0529,-0.0671 -0.0801,-0.12305 -0.1258,-0.2583 -0.19623,-0.46612 -0.23047,-0.73828 -7.5e-4,-10e-4 5e-5,-0.003 -0.002,-0.004 -0.0616,-0.10772 -0.11172,-0.224 -0.16993,-0.33399 -0.0227,-0.0457 -0.0481,-0.091 -0.0723,-0.13672 -0.1629,-0.32012 -0.29674,-0.65077 -0.4336,-0.98242 -0.14982,-0.38355 -0.26948,-0.77889 -0.39843,-1.16992 -0.12246,-0.34129 -0.25532,-0.67814 -0.36719,-1.02344 -0.12813,-0.32995 -0.22709,-0.66814 -0.35938,-0.99609 -0.0964,-0.23547 -0.10245,-0.23629 -0.17578,-0.4668 -0.0113,-0.0302 -0.0406,-0.0658 -0.0273,-0.0957 0.0113,-0.0227 0.0313,0.0381 0.0449,0.0566 l 0.0215,0.0234 c -0.0227,-0.034 -0.0465,-0.0625 -0.0703,-0.0937 0.0151,0.0151 0.0609,0.0619 0.0469,0.0449 -0.0654,-0.0801 -0.13843,-0.15236 -0.20117,-0.23438 -0.11566,-0.15156 -0.10939,-0.16226 -0.17969,-0.2832 -0.0302,-0.0495 -0.069,-0.0944 -0.0879,-0.14844 -0.0326,-0.0344 -0.0663,-0.0684 -0.0957,-0.10547 -0.18407,-0.23206 -0.30464,-0.50882 -0.42774,-0.77539 0.0113,0.0151 0.024,0.029 0.0391,0.043 0.004,0.004 0.0175,0.0193 0.0137,0.0117 -0.0189,-0.0265 -0.0904,-0.0899 -0.0586,-0.0801 0.0404,0.0113 0.11714,0.12054 0.0899,0.0899 -0.3035,-0.33865 -0.0728,-0.0477 -0.33399,-0.39649 -0.0763,-0.11905 -0.15254,-0.2332 -0.2168,-0.36133 -0.12207,-0.24453 -0.19174,-0.5059 -0.29492,-0.75781 -0.12699,-0.33562 -0.23774,-0.67665 -0.36133,-1.01367 -0.085,-0.21808 -0.20395,-0.42217 -0.27539,-0.64649 -10e-4,-0.003 0.0117,0.005 0.0117,0.002 -0.004,-0.0189 -0.0178,-0.035 -0.0254,-0.0547 -0.1988,-0.35603 -0.41422,-0.70457 -0.52929,-1.09961 -0.14778,-0.35301 -0.29747,-0.70579 -0.41993,-1.06836 -0.005,-0.018 -0.01,-0.0369 -0.0176,-0.0547 -0.0897,-0.0861 -0.18207,-0.16972 -0.26368,-0.26367 -0.7941,-0.91398 -0.91437,-1.76412 -0.64258,-2.30273 -0.0356,-0.0632 -0.0844,-0.13445 -0.11132,-0.18945 -0.23339,-0.47842 -0.33616,-0.91265 -0.35742,-1.29883 L 390.2168,400.76367 562.38867,496.44141 c 0.002,10e-4 0.01,0.003 0.0117,0.004 l 0.006,0.004 2.26953,1.26172 c 0.0478,-0.004 0.0895,-0.0167 0.14063,-0.0156 0.3486,0.007 0.77118,0.13665 1.23242,0.42969 h 0.004 c 0.0992,0.063 0.36316,0.32903 0.36133,0.35547 0.002,0.001 0.007,0.004 0.01,0.006 0.64873,0.16145 0.74679,0.13186 1.20508,0.41797 0.093,0.0229 0.18512,0.0464 0.27539,0.0781 0.60907,0.2143 0.2693,0.14 0.45703,0.17969 -0.30392,-0.17879 0.0644,0.0367 0.28906,0.1582 0.0625,0.0191 0.13127,0.0406 0.15039,0.043 0.0302,0.003 -0.0505,-0.022 -0.0762,-0.0371 0.13379,0.0227 0.26686,0.0429 0.40039,0.0645 0.70726,0.0412 1.33783,0.38159 2.00586,0.57227 0.63598,0.19767 1.27568,0.37365 1.91797,0.54883 0.61107,0.18331 1.20878,0.41143 1.81445,0.61133 0.7101,0.23244 1.45008,0.35174 2.17578,0.52734 0.13418,0.034 0.2687,0.0665 0.40235,0.10352 0.65215,0.18104 0.20336,0.0642 0.98632,0.35937 0.0227,0.008 0.0461,4.6e-4 0.0684,0.004 0.1663,0.0302 0.2268,0.0683 0.10547,0.004 0.5449,0.0378 1.07348,0.17858 1.60352,0.29688 0.008,0.001 0.012,-0.006 0.0195,-0.006 0.11565,0.0189 0.22847,0.0465 0.34375,0.0703 0.48854,0.0419 0.97285,0.17719 1.44336,0.3125 0.48091,0.13795 0.27829,0.13496 0.5,0.12891 -0.0385,-0.0113 -0.1553,-0.0332 -0.11524,-0.0332 0.14741,-0.004 0.2942,0.0197 0.44141,0.0274 0.20707,0.0133 0.41295,0.0403 0.61914,0.0684 0.0765,-0.009 0.15334,-0.006 0.23438,-0.0274 0.4399,-0.11376 0.64978,-0.23999 1.09179,-0.41796 0.7282,-0.29292 0.5952,-0.23952 1.24414,-0.4336 0.14522,-0.054 0.29261,-0.10262 0.43555,-0.16211 0.0463,-0.0396 0.0859,-0.0861 0.13477,-0.12304 0.70359,-0.50332 -0.42664,0.31603 0.46484,-0.33594 0.0348,-0.0256 0.0826,-0.061 0.10742,-0.0723 0.1385,-0.13539 0.28071,-0.26833 0.41211,-0.41015 0.36175,-0.40863 0.77855,-0.75456 1.25977,-1.00391 0.14049,-0.22728 0.30659,-0.21554 1.09375,-0.58594 0.0218,-0.0179 0.0402,-0.0394 0.0625,-0.0566 -0.0718,0.0206 -0.0974,0.0248 -0.14649,0.0371 -0.28799,0.12358 -0.0402,0.0214 0.16797,-0.0566 0.0151,-0.0115 0.0278,-0.0258 0.043,-0.0371 0.15978,-0.11859 0.22811,-0.16943 0.2793,-0.20117 0.15928,-0.15544 0.32417,-0.30364 0.50976,-0.43359 0.0283,-0.0264 0.0329,-0.036 0.0508,-0.0527 0.27742,-0.25927 0.31576,-0.27015 0.61914,-0.47851 0.0302,-0.0151 0.0576,-0.0333 0.0859,-0.0488 0.066,-0.0384 0.163,-0.15346 0.22461,-0.18164 0.16946,-0.18527 0.36326,-0.39633 0.44336,-0.48633 0.0671,-0.0754 0.13561,-0.12449 0.20313,-0.19336 0.021,-0.0272 0.0391,-0.056 0.0586,-0.084 0.0623,-0.0882 0.13559,-0.16635 0.20703,-0.24609 A 221.68882,229.5078 65 0 0 535.33203,224.9082 221.68882,229.5078 65 0 0 406.48242,177.88281 Z m 67.7168,404.125 c -0.0113,-0.0302 0.0417,0.0524 0.0625,0.0781 0.0227,0.0227 0.0965,0.096 0.0742,0.0703 -0.0439,-0.0507 -0.0905,-0.0997 -0.13672,-0.14844 z m 117.46094,-83.91406 c -0.0149,0.008 -0.0356,0.0123 -0.0469,0.0215 -0.008,0.004 -10e-4,0.0292 0.004,0.0254 0.01,-0.009 0.0314,-0.0352 0.043,-0.0469 z m -25.67969,0.12305 c 0.31452,0.1849 0.27923,0.1679 0.37695,0.22851 -0.0326,-0.024 -0.0799,-0.0615 -0.15234,-0.12304 -0.0752,-0.034 -0.14948,-0.0705 -0.22461,-0.10547 z m 0.63086,0.39453 c 0.0287,0.0259 0.0559,0.0535 0.084,0.0801 0.13407,0.0672 0.26663,0.13751 0.40235,0.20117 0.034,0.0151 -0.0492,-0.0588 -0.082,-0.0762 -0.13306,-0.0712 -0.26944,-0.13654 -0.40429,-0.20508 z m 1.03515,0.30273 c 0.004,0.002 0.008,0.005 0.0117,0.008 0.0189,0.008 0.0829,0.0271 0.0625,0.0195 -0.0246,-0.009 -0.0359,-0.0145 -0.0742,-0.0274 z m 22.88282,0.18164 c -0.0284,0.007 -0.10631,0.0379 -0.19922,0.0742 l -0.006,0.006 c 0.17422,-0.0427 0.0991,-0.022 0.16016,-0.0371 0.0344,-0.0241 0.0689,-0.0489 0.0449,-0.043 z m -0.19532,0.13868 c -0.0458,0.0172 -0.0762,0.0295 -0.12304,0.0488 -0.0205,0.0155 -0.0453,0.0246 -0.0664,0.0391 -0.0373,0.0297 -0.0729,0.0615 -0.11133,0.0898 -0.0206,0.0159 0.0272,-0.0288 0.0527,-0.0547 -0.075,0.0475 -0.15095,0.0942 -0.23047,0.13477 -0.0545,0.0523 -0.14467,0.12744 -0.12305,0.10156 0.21146,-0.1255 0.50722,-0.3012 0.60156,-0.35937 z m -0.60156,0.35937 c 0.0294,-0.033 0.0672,-0.0575 0.0996,-0.0879 -0.1881,0.0948 -0.38013,0.18406 -0.55859,0.29492 -0.004,0.002 -0.004,0.007 -0.008,0.01 0.0868,-0.035 0.17629,-0.0624 0.26368,-0.0957 0.0507,-0.0302 0.13045,-0.0772 0.20117,-0.11914 z m 0.37696,-0.26367 c 0.003,-0.003 -0.04,0.01 -0.0566,0.0137 -0.014,0.007 -0.0255,0.009 -0.0391,0.0156 -0.0189,0.01 -0.0239,0.0217 -0.0488,0.041 0.0575,-0.0273 0.0705,-0.0285 0.13477,-0.0606 z m -118.76172,76.46289 c 0.0178,0.0239 0.0346,0.0484 0.0547,0.0703 0.002,0.003 0.01,-0.004 0.008,-0.008 -0.0198,-0.0218 -0.0418,-0.0416 -0.0625,-0.0625 z m 5.28711,12.06445 c 0.008,0.0202 0.0315,0.10528 0.0254,0.0781 -0.005,-0.0231 -0.0129,-0.0456 -0.0195,-0.0684 -0.002,-0.004 -0.004,-0.006 -0.006,-0.01 z m 0.32812,0.88867 c 0.007,0.0243 0.0142,0.0484 0.0234,0.0723 0.002,0.007 -0.009,-0.0353 -0.0176,-0.0664 z m 0.0312,0.0469 c 0.0112,0.0236 -3.7e-4,-0.0153 0.0352,0.0762 0.076,0.0598 0.0325,0.0118 -0.0352,-0.0762 z m 0.39258,1.31445 c 0.003,0.008 0.007,0.0154 0.01,0.0234 0.0419,0.0588 0.0994,0.14724 0.0762,0.10937 -0.062,-0.10163 -0.0518,-0.0804 -0.0859,-0.13281 z m 0.78125,1.69336 c 0.007,0.0246 0.005,0.0149 0.0195,0.0605 0.006,0.018 -0.0106,-0.0345 -0.0137,-0.0527 -8.1e-4,-10e-4 -0.005,-0.006 -0.006,-0.008 z"
         style="fill:#006f00;fill-opacity:1;stroke:#916f6f;stroke-width:1.13133049"
         transform="scale(0.26458333)"
         id="path4582"
         inkscape:connector-curvature="0" />
      <path
         d="m 405.37305,193.07617 a 206.5762,213.86216 65 0 0 -156.70313,56.31055 206.5762,213.86216 65 0 0 -36.74219,269.1875 206.5762,213.86216 65 0 0 264.82813,69.75976 c -0.0578,-0.15358 -0.10281,-0.30604 -0.125,-0.48242 -7.5e-4,-10e-4 5e-5,-0.003 -0.002,-0.004 -0.0616,-0.10772 -0.11172,-0.224 -0.16993,-0.33399 -0.0227,-0.0457 -0.0481,-0.091 -0.0723,-0.13672 -0.1629,-0.32012 -0.29674,-0.65077 -0.4336,-0.98242 -0.14982,-0.38355 -0.26948,-0.77889 -0.39843,-1.16992 -0.12246,-0.34129 -0.25532,-0.67814 -0.36719,-1.02344 -0.12813,-0.32995 -0.22709,-0.66814 -0.35938,-0.99609 -0.0964,-0.23547 -0.10245,-0.23629 -0.17578,-0.4668 -0.0113,-0.0302 -0.0406,-0.0658 -0.0273,-0.0957 0.0113,-0.0227 0.0313,0.0381 0.0449,0.0566 l 0.0215,0.0234 c -0.0227,-0.034 -0.0465,-0.0625 -0.0703,-0.0937 0.0151,0.0151 0.0609,0.0619 0.0469,0.0449 -0.0654,-0.0801 -0.13843,-0.15236 -0.20117,-0.23438 -0.11566,-0.15156 -0.10939,-0.16226 -0.17969,-0.2832 -0.0302,-0.0495 -0.069,-0.0944 -0.0879,-0.14844 -0.0326,-0.0344 -0.0663,-0.0684 -0.0957,-0.10547 -0.18407,-0.23206 -0.30464,-0.50882 -0.42774,-0.77539 0.0113,0.0151 0.024,0.029 0.0391,0.043 0.004,0.004 0.0175,0.0193 0.0137,0.0117 -0.0189,-0.0265 -0.0904,-0.0899 -0.0586,-0.0801 0.0404,0.0113 0.11714,0.12054 0.0899,0.0899 -0.3035,-0.33865 -0.0728,-0.0477 -0.33399,-0.39649 -0.0763,-0.11905 -0.15254,-0.2332 -0.2168,-0.36133 -0.12207,-0.24453 -0.19174,-0.5059 -0.29492,-0.75781 -0.12699,-0.33562 -0.23774,-0.67665 -0.36133,-1.01367 -0.085,-0.21808 -0.20395,-0.42217 -0.27539,-0.64649 -0.001,-0.003 0.01,0.005 0.01,0.002 -0.004,-0.0189 -0.0178,-0.035 -0.0254,-0.0547 -0.1988,-0.35603 -0.41406,-0.70457 -0.5293,-1.09961 -0.14778,-0.35301 -0.29746,-0.70579 -0.41992,-1.06836 -0.005,-0.018 -0.01,-0.0369 -0.0176,-0.0547 -0.0897,-0.0861 -0.18206,-0.16972 -0.26367,-0.26367 -0.79495,-0.91496 -0.91564,-1.76632 -0.64258,-2.30468 -0.0352,-0.0626 -0.0846,-0.13292 -0.11133,-0.1875 -0.23219,-0.47597 -0.33516,-0.90821 -0.35742,-1.29297 l -79.7034,-170.92765 172.16211,95.67188 c 0.005,0.003 0.028,0.0142 0.0332,0.0176 l 2.26172,1.25782 c 0.0484,-0.004 0.0907,-0.0167 0.14258,-0.0156 0.3486,0.007 0.77118,0.13665 1.23242,0.42969 h 0.004 c 0.0992,0.063 0.36316,0.32903 0.36133,0.35547 0.002,0.001 0.007,0.004 0.01,0.006 0.64873,0.16145 0.74679,0.13186 1.20508,0.41797 0.093,0.0229 0.18512,0.0464 0.27539,0.0781 0.60907,0.2143 0.2693,0.14 0.45703,0.17969 -0.30392,-0.17879 0.0644,0.0367 0.28906,0.1582 0.0625,0.0191 0.13127,0.0406 0.15039,0.043 0.0302,0.003 -0.0505,-0.022 -0.0762,-0.0371 0.13379,0.0227 0.26686,0.0429 0.40039,0.0645 0.70726,0.0412 1.33783,0.38159 2.00586,0.57227 0.63598,0.19767 1.27568,0.37365 1.91797,0.54883 0.22767,0.0683 0.45071,0.15155 0.67578,0.22851 A 206.5762,213.86216 65 0 0 525.43945,236.89648 206.5762,213.86216 65 0 0 405.37305,193.07617 Z m 68.82617,388.93164 c -0.0113,-0.0302 0.0417,0.0524 0.0625,0.0781 0.0227,0.0227 0.0965,0.096 0.0742,0.0703 -0.0439,-0.0507 -0.0905,-0.0997 -0.13672,-0.14844 z m 91.78125,-83.79101 c 0.31452,0.1849 0.27923,0.1679 0.37695,0.22851 -0.0326,-0.024 -0.0799,-0.0615 -0.15234,-0.12304 -0.0752,-0.034 -0.14948,-0.0705 -0.22461,-0.10547 z m 0.63086,0.39453 c 0.0287,0.0259 0.0559,0.0535 0.084,0.0801 0.13407,0.0672 0.26663,0.13751 0.40235,0.20117 0.034,0.0151 -0.0492,-0.0588 -0.082,-0.0762 -0.13306,-0.0712 -0.26944,-0.13654 -0.40429,-0.20508 z m 1.03515,0.30273 c 0.004,0.002 0.008,0.005 0.0117,0.008 0.0189,0.008 0.0829,0.0271 0.0625,0.0195 -0.0246,-0.009 -0.0359,-0.0145 -0.0742,-0.0274 z m -96.29882,76.87891 c 0.0178,0.0239 0.0346,0.0484 0.0547,0.0703 0.002,0.003 0.01,-0.004 0.008,-0.008 -0.0198,-0.0218 -0.0418,-0.0416 -0.0625,-0.0625 z m 5.28711,12.06445 c 0.008,0.0202 0.0315,0.10528 0.0254,0.0781 -0.005,-0.0231 -0.0129,-0.0456 -0.0195,-0.0684 -0.002,-0.004 -0.004,-0.006 -0.006,-0.01 z"
         style="fill:#008000;stroke:#916f6f;stroke-width:1.05420721"
         transform="scale(0.26458333)"
         id="path101"
         inkscape:connector-curvature="0" />
    </g>
  </g>
  <g
     inkscape:groupmode="layer"
     id="layer2"
     inkscape:label="Layer 2" />
</svg>
